{
	"asset":{
		"generator":"Khronos glTF Blender I/O v3.5.30",
		"version":"2.0"
	},
	"scene":0,
	"scenes":[
		{
			"name":"Scene",
			"nodes":[
				0
			]
		}
	],
	"nodes":[
		{
			"mesh":0,
			"name":"car-minibus-silver_Cube.632",
			"rotation":[
				0.7071068286895752,
				0,
				0,
				0.7071068286895752
			]
		}
	],
	"animations":[
		{
			"channels":[
				{
					"sampler":0,
					"target":{
						"node":0,
						"path":"translation"
					}
				},
				{
					"sampler":1,
					"target":{
						"node":0,
						"path":"rotation"
					}
				},
				{
					"sampler":2,
					"target":{
						"node":0,
						"path":"scale"
					}
				}
			],
			"name":"car-minibus-silver_Cube.632",
			"samplers":[
				{
					"input":21,
					"interpolation":"LINEAR",
					"output":22
				},
				{
					"input":21,
					"interpolation":"LINEAR",
					"output":23
				},
				{
					"input":21,
					"interpolation":"LINEAR",
					"output":24
				}
			]
		}
	],
	"materials":[
		{
			"doubleSided":true,
			"name":"carmaterial_silver.003",
			"pbrMetallicRoughness":{
				"baseColorFactor":[
					0.15620799362659454,
					0.19066700339317322,
					0.23655399680137634,
					1
				],
				"metallicFactor":0,
				"roughnessFactor":0.6900347471237183
			}
		},
		{
			"doubleSided":true,
			"name":"windows.014",
			"pbrMetallicRoughness":{
				"baseColorFactor":[
					0.22351999580860138,
					0.45107799768447876,
					0.6399999856948853,
					1
				],
				"metallicFactor":0,
				"roughnessFactor":0.6900347471237183
			}
		},
		{
			"doubleSided":true,
			"name":"lights.014",
			"pbrMetallicRoughness":{
				"baseColorFactor":[
					0.6399999856948853,
					0.6314700245857239,
					0.5094929933547974,
					1
				],
				"metallicFactor":0,
				"roughnessFactor":0.6900347471237183
			}
		},
		{
			"doubleSided":true,
			"name":"metal.014",
			"pbrMetallicRoughness":{
				"baseColorFactor":[
					0.3583829998970032,
					0.3583829998970032,
					0.3583829998970032,
					1
				],
				"metallicFactor":0,
				"roughnessFactor":0.6900347471237183
			}
		},
		{
			"doubleSided":true,
			"name":"tires.014",
			"pbrMetallicRoughness":{
				"baseColorFactor":[
					0.020315000787377357,
					0.020315000787377357,
					0.020315000787377357,
					1
				],
				"metallicFactor":0,
				"roughnessFactor":0.6900347471237183
			}
		},
		{
			"doubleSided":true,
			"name":"lights.red.014",
			"pbrMetallicRoughness":{
				"baseColorFactor":[
					0.800000011920929,
					0.005716000217944384,
					0.00866399984806776,
					1
				],
				"metallicFactor":0,
				"roughnessFactor":0.6900347471237183
			}
		},
		{
			"doubleSided":true,
			"name":"lights.orange.014",
			"pbrMetallicRoughness":{
				"baseColorFactor":[
					0.800000011920929,
					0.2475149929523468,
					0.007284000050276518,
					1
				],
				"metallicFactor":0,
				"roughnessFactor":0.6900347471237183
			}
		}
	],
	"meshes":[
		{
			"name":"car-minibus-silver_Cube.632",
			"primitives":[
				{
					"attributes":{
						"POSITION":0,
						"NORMAL":1
					},
					"indices":2,
					"material":0
				},
				{
					"attributes":{
						"POSITION":3,
						"NORMAL":4
					},
					"indices":5,
					"material":1
				},
				{
					"attributes":{
						"POSITION":6,
						"NORMAL":7
					},
					"indices":8,
					"material":2
				},
				{
					"attributes":{
						"POSITION":9,
						"NORMAL":10
					},
					"indices":11,
					"material":3
				},
				{
					"attributes":{
						"POSITION":12,
						"NORMAL":13
					},
					"indices":14,
					"material":4
				},
				{
					"attributes":{
						"POSITION":15,
						"NORMAL":16
					},
					"indices":17,
					"material":5
				},
				{
					"attributes":{
						"POSITION":18,
						"NORMAL":19
					},
					"indices":20,
					"material":6
				}
			]
		}
	],
	"accessors":[
		{
			"bufferView":0,
			"componentType":5126,
			"count":542,
			"max":[
				0.9288020133972168,
				1.9971380233764648,
				-0.36000001430511475
			],
			"min":[
				-0.9288020133972168,
				-2.303826093673706,
				-1.8899999856948853
			],
			"type":"VEC3"
		},
		{
			"bufferView":1,
			"componentType":5126,
			"count":542,
			"type":"VEC3"
		},
		{
			"bufferView":2,
			"componentType":5123,
			"count":1314,
			"type":"SCALAR"
		},
		{
			"bufferView":3,
			"componentType":5126,
			"count":40,
			"max":[
				0.8290780186653137,
				1.5808180570602417,
				-1.2298500537872314
			],
			"min":[
				-0.8290839791297913,
				-2.2501580715179443,
				-1.8179999589920044
			],
			"type":"VEC3"
		},
		{
			"bufferView":4,
			"componentType":5126,
			"count":40,
			"type":"VEC3"
		},
		{
			"bufferView":5,
			"componentType":5123,
			"count":60,
			"type":"SCALAR"
		},
		{
			"bufferView":6,
			"componentType":5126,
			"count":112,
			"max":[
				0.7218019962310791,
				2.000185966491699,
				-0.6550580263137817
			],
			"min":[
				-0.7217980027198792,
				1.9451580047607422,
				-0.8712000250816345
			],
			"type":"VEC3"
		},
		{
			"bufferView":7,
			"componentType":5126,
			"count":112,
			"type":"VEC3"
		},
		{
			"bufferView":8,
			"componentType":5123,
			"count":132,
			"type":"SCALAR"
		},
		{
			"bufferView":9,
			"componentType":5126,
			"count":88,
			"max":[
				0.9360020160675049,
				2.000488042831421,
				-0.149399995803833
			],
			"min":[
				-0.9360020160675049,
				-1.7594640254974365,
				-0.8711339831352234
			],
			"type":"VEC3"
		},
		{
			"bufferView":10,
			"componentType":5126,
			"count":88,
			"type":"VEC3"
		},
		{
			"bufferView":11,
			"componentType":5123,
			"count":222,
			"type":"SCALAR"
		},
		{
			"bufferView":12,
			"componentType":5126,
			"count":512,
			"max":[
				0.9540020227432251,
				1.7271380424499512,
				0
			],
			"min":[
				-0.9540020227432251,
				-1.9088640213012695,
				-0.7200000286102295
			],
			"type":"VEC3"
		},
		{
			"bufferView":13,
			"componentType":5126,
			"count":512,
			"type":"VEC3"
		},
		{
			"bufferView":14,
			"componentType":5123,
			"count":1536,
			"type":"SCALAR"
		},
		{
			"bufferView":15,
			"componentType":5126,
			"count":44,
			"max":[
				0.7170180082321167,
				-2.2960519790649414,
				-0.7317479848861694
			],
			"min":[
				-0.7170259952545166,
				-2.3261399269104004,
				-0.9644359946250916
			],
			"type":"VEC3"
		},
		{
			"bufferView":16,
			"componentType":5126,
			"count":44,
			"type":"VEC3"
		},
		{
			"bufferView":17,
			"componentType":5123,
			"count":72,
			"type":"SCALAR"
		},
		{
			"bufferView":18,
			"componentType":5126,
			"count":160,
			"max":[
				0.8046020269393921,
				1.9689819812774658,
				-0.806298017501831
			],
			"min":[
				-0.8045979738235474,
				-2.3261399269104004,
				-1.059880018234253
			],
			"type":"VEC3"
		},
		{
			"bufferView":19,
			"componentType":5126,
			"count":160,
			"type":"VEC3"
		},
		{
			"bufferView":20,
			"componentType":5123,
			"count":204,
			"type":"SCALAR"
		},
		{
			"bufferView":21,
			"componentType":5126,
			"count":73,
			"max":[
				3
			],
			"min":[
				0
			],
			"type":"SCALAR"
		},
		{
			"bufferView":22,
			"componentType":5126,
			"count":73,
			"type":"VEC3"
		},
		{
			"bufferView":23,
			"componentType":5126,
			"count":73,
			"type":"VEC4"
		},
		{
			"bufferView":24,
			"componentType":5126,
			"count":73,
			"type":"VEC3"
		}
	],
	"bufferViews":[
		{
			"buffer":0,
			"byteLength":6504,
			"byteOffset":0,
			"target":34962
		},
		{
			"buffer":0,
			"byteLength":6504,
			"byteOffset":6504,
			"target":34962
		},
		{
			"buffer":0,
			"byteLength":2628,
			"byteOffset":13008,
			"target":34963
		},
		{
			"buffer":0,
			"byteLength":480,
			"byteOffset":15636,
			"target":34962
		},
		{
			"buffer":0,
			"byteLength":480,
			"byteOffset":16116,
			"target":34962
		},
		{
			"buffer":0,
			"byteLength":120,
			"byteOffset":16596,
			"target":34963
		},
		{
			"buffer":0,
			"byteLength":1344,
			"byteOffset":16716,
			"target":34962
		},
		{
			"buffer":0,
			"byteLength":1344,
			"byteOffset":18060,
			"target":34962
		},
		{
			"buffer":0,
			"byteLength":264,
			"byteOffset":19404,
			"target":34963
		},
		{
			"buffer":0,
			"byteLength":1056,
			"byteOffset":19668,
			"target":34962
		},
		{
			"buffer":0,
			"byteLength":1056,
			"byteOffset":20724,
			"target":34962
		},
		{
			"buffer":0,
			"byteLength":444,
			"byteOffset":21780,
			"target":34963
		},
		{
			"buffer":0,
			"byteLength":6144,
			"byteOffset":22224,
			"target":34962
		},
		{
			"buffer":0,
			"byteLength":6144,
			"byteOffset":28368,
			"target":34962
		},
		{
			"buffer":0,
			"byteLength":3072,
			"byteOffset":34512,
			"target":34963
		},
		{
			"buffer":0,
			"byteLength":528,
			"byteOffset":37584,
			"target":34962
		},
		{
			"buffer":0,
			"byteLength":528,
			"byteOffset":38112,
			"target":34962
		},
		{
			"buffer":0,
			"byteLength":144,
			"byteOffset":38640,
			"target":34963
		},
		{
			"buffer":0,
			"byteLength":1920,
			"byteOffset":38784,
			"target":34962
		},
		{
			"buffer":0,
			"byteLength":1920,
			"byteOffset":40704,
			"target":34962
		},
		{
			"buffer":0,
			"byteLength":408,
			"byteOffset":42624,
			"target":34963
		},
		{
			"buffer":0,
			"byteLength":292,
			"byteOffset":43032
		},
		{
			"buffer":0,
			"byteLength":876,
			"byteOffset":43324
		},
		{
			"buffer":0,
			"byteLength":1168,
			"byteOffset":44200
		},
		{
			"buffer":0,
			"byteLength":876,
			"byteOffset":45368
		}
	],
	"buffers":[
		{
			"byteLength":46244,
			"uri":"data:application/octet-stream;base64,"
		}
	]
}
