{
	"asset":{
		"generator":"Khronos glTF Blender I/O v3.5.30",
		"version":"2.0"
	},
	"scene":0,
	"scenes":[
		{
			"name":"Scene",
			"nodes":[
				0
			]
		}
	],
	"nodes":[
		{
			"mesh":0,
			"name":"car-hatchback-orange_Cube.616",
			"rotation":[
				0.7071068286895752,
				0,
				0,
				0.7071068286895752
			]
		}
	],
	"animations":[
		{
			"channels":[
				{
					"sampler":0,
					"target":{
						"node":0,
						"path":"translation"
					}
				},
				{
					"sampler":1,
					"target":{
						"node":0,
						"path":"rotation"
					}
				},
				{
					"sampler":2,
					"target":{
						"node":0,
						"path":"scale"
					}
				}
			],
			"name":"car-hatchback-orange_Cube.616",
			"samplers":[
				{
					"input":21,
					"interpolation":"LINEAR",
					"output":22
				},
				{
					"input":21,
					"interpolation":"LINEAR",
					"output":23
				},
				{
					"input":21,
					"interpolation":"LINEAR",
					"output":24
				}
			]
		}
	],
	"materials":[
		{
			"doubleSided":true,
			"name":"carmaterial_orange.001",
			"pbrMetallicRoughness":{
				"baseColorFactor":[
					0.6330379843711853,
					0.16690999269485474,
					0.012796999886631966,
					1
				],
				"metallicFactor":0,
				"roughnessFactor":0.6900347471237183
			}
		},
		{
			"doubleSided":true,
			"name":"windows.004",
			"pbrMetallicRoughness":{
				"baseColorFactor":[
					0.22351999580860138,
					0.45107799768447876,
					0.6399999856948853,
					1
				],
				"metallicFactor":0,
				"roughnessFactor":0.6900347471237183
			}
		},
		{
			"doubleSided":true,
			"name":"lights.004",
			"pbrMetallicRoughness":{
				"baseColorFactor":[
					0.6399999856948853,
					0.6314700245857239,
					0.5094929933547974,
					1
				],
				"metallicFactor":0,
				"roughnessFactor":0.6900347471237183
			}
		},
		{
			"doubleSided":true,
			"name":"metal.004",
			"pbrMetallicRoughness":{
				"baseColorFactor":[
					0.3583829998970032,
					0.3583829998970032,
					0.3583829998970032,
					1
				],
				"metallicFactor":0,
				"roughnessFactor":0.6900347471237183
			}
		},
		{
			"doubleSided":true,
			"name":"tires.004",
			"pbrMetallicRoughness":{
				"baseColorFactor":[
					0.020315000787377357,
					0.020315000787377357,
					0.020315000787377357,
					1
				],
				"metallicFactor":0,
				"roughnessFactor":0.6900347471237183
			}
		},
		{
			"doubleSided":true,
			"name":"lights.red.004",
			"pbrMetallicRoughness":{
				"baseColorFactor":[
					0.800000011920929,
					0.005716000217944384,
					0.00866399984806776,
					1
				],
				"metallicFactor":0,
				"roughnessFactor":0.6900347471237183
			}
		},
		{
			"doubleSided":true,
			"name":"lights.orange.004",
			"pbrMetallicRoughness":{
				"baseColorFactor":[
					0.800000011920929,
					0.2475149929523468,
					0.007284000050276518,
					1
				],
				"metallicFactor":0,
				"roughnessFactor":0.6900347471237183
			}
		}
	],
	"meshes":[
		{
			"name":"car-hatchback-orange_Cube.616",
			"primitives":[
				{
					"attributes":{
						"POSITION":0,
						"NORMAL":1
					},
					"indices":2,
					"material":0
				},
				{
					"attributes":{
						"POSITION":3,
						"NORMAL":4
					},
					"indices":5,
					"material":1
				},
				{
					"attributes":{
						"POSITION":6,
						"NORMAL":7
					},
					"indices":8,
					"material":2
				},
				{
					"attributes":{
						"POSITION":9,
						"NORMAL":10
					},
					"indices":11,
					"material":3
				},
				{
					"attributes":{
						"POSITION":12,
						"NORMAL":13
					},
					"indices":14,
					"material":4
				},
				{
					"attributes":{
						"POSITION":15,
						"NORMAL":16
					},
					"indices":17,
					"material":5
				},
				{
					"attributes":{
						"POSITION":18,
						"NORMAL":19
					},
					"indices":20,
					"material":6
				}
			]
		}
	],
	"accessors":[
		{
			"bufferView":0,
			"componentType":5126,
			"count":458,
			"max":[
				0.8660979866981506,
				1.9908000230789185,
				-0.37619999051094055
			],
			"min":[
				-0.8660979866981506,
				-1.6156140565872192,
				-1.6469500064849854
			],
			"type":"VEC3"
		},
		{
			"bufferView":1,
			"componentType":5126,
			"count":458,
			"type":"VEC3"
		},
		{
			"bufferView":2,
			"componentType":5123,
			"count":1122,
			"type":"SCALAR"
		},
		{
			"bufferView":3,
			"componentType":5126,
			"count":24,
			"max":[
				0.7607579827308655,
				0.8557739853858948,
				-1.0930559635162354
			],
			"min":[
				-0.7607619762420654,
				-1.2364200353622437,
				-1.5717099905014038
			],
			"type":"VEC3"
		},
		{
			"bufferView":4,
			"componentType":5126,
			"count":24,
			"type":"VEC3"
		},
		{
			"bufferView":5,
			"componentType":5123,
			"count":36,
			"type":"SCALAR"
		},
		{
			"bufferView":6,
			"componentType":5126,
			"count":80,
			"max":[
				0.6497840285301208,
				1.9955159425735474,
				-0.5968959927558899
			],
			"min":[
				-0.6497780084609985,
				1.9380120038986206,
				-0.8227660059928894
			],
			"type":"VEC3"
		},
		{
			"bufferView":7,
			"componentType":5126,
			"count":80,
			"type":"VEC3"
		},
		{
			"bufferView":8,
			"componentType":5123,
			"count":132,
			"type":"SCALAR"
		},
		{
			"bufferView":9,
			"componentType":5126,
			"count":88,
			"max":[
				0.8736220002174377,
				1.9958339929580688,
				-0.15612399578094482
			],
			"min":[
				-0.8736220002174377,
				-1.0480220317840576,
				-0.8226959705352783
			],
			"type":"VEC3"
		},
		{
			"bufferView":10,
			"componentType":5126,
			"count":88,
			"type":"VEC3"
		},
		{
			"bufferView":11,
			"componentType":5123,
			"count":222,
			"type":"SCALAR"
		},
		{
			"bufferView":12,
			"componentType":5126,
			"count":512,
			"max":[
				0.8924319744110107,
				1.7086520195007324,
				0
			],
			"min":[
				-0.8924319744110107,
				-1.20414400100708,
				-0.7523999810218811
			],
			"type":"VEC3"
		},
		{
			"bufferView":13,
			"componentType":5126,
			"count":512,
			"type":"VEC3"
		},
		{
			"bufferView":14,
			"componentType":5123,
			"count":1536,
			"type":"SCALAR"
		},
		{
			"bufferView":15,
			"componentType":5126,
			"count":60,
			"max":[
				0.6323639750480652,
				-1.5159859657287598,
				-0.9706739783287048
			],
			"min":[
				-0.6323720216751099,
				-1.568160057067871,
				-1.1169960498809814
			],
			"type":"VEC3"
		},
		{
			"bufferView":16,
			"componentType":5126,
			"count":60,
			"type":"VEC3"
		},
		{
			"bufferView":17,
			"componentType":5123,
			"count":96,
			"type":"SCALAR"
		},
		{
			"bufferView":18,
			"componentType":5126,
			"count":140,
			"max":[
				0.7454220056533813,
				1.953495979309082,
				-0.781391978263855
			],
			"min":[
				-0.7454299926757812,
				-1.568160057067871,
				-1.1169960498809814
			],
			"type":"VEC3"
		},
		{
			"bufferView":19,
			"componentType":5126,
			"count":140,
			"type":"VEC3"
		},
		{
			"bufferView":20,
			"componentType":5123,
			"count":228,
			"type":"SCALAR"
		},
		{
			"bufferView":21,
			"componentType":5126,
			"count":73,
			"max":[
				3
			],
			"min":[
				0
			],
			"type":"SCALAR"
		},
		{
			"bufferView":22,
			"componentType":5126,
			"count":73,
			"type":"VEC3"
		},
		{
			"bufferView":23,
			"componentType":5126,
			"count":73,
			"type":"VEC4"
		},
		{
			"bufferView":24,
			"componentType":5126,
			"count":73,
			"type":"VEC3"
		}
	],
	"bufferViews":[
		{
			"buffer":0,
			"byteLength":5496,
			"byteOffset":0,
			"target":34962
		},
		{
			"buffer":0,
			"byteLength":5496,
			"byteOffset":5496,
			"target":34962
		},
		{
			"buffer":0,
			"byteLength":2244,
			"byteOffset":10992,
			"target":34963
		},
		{
			"buffer":0,
			"byteLength":288,
			"byteOffset":13236,
			"target":34962
		},
		{
			"buffer":0,
			"byteLength":288,
			"byteOffset":13524,
			"target":34962
		},
		{
			"buffer":0,
			"byteLength":72,
			"byteOffset":13812,
			"target":34963
		},
		{
			"buffer":0,
			"byteLength":960,
			"byteOffset":13884,
			"target":34962
		},
		{
			"buffer":0,
			"byteLength":960,
			"byteOffset":14844,
			"target":34962
		},
		{
			"buffer":0,
			"byteLength":264,
			"byteOffset":15804,
			"target":34963
		},
		{
			"buffer":0,
			"byteLength":1056,
			"byteOffset":16068,
			"target":34962
		},
		{
			"buffer":0,
			"byteLength":1056,
			"byteOffset":17124,
			"target":34962
		},
		{
			"buffer":0,
			"byteLength":444,
			"byteOffset":18180,
			"target":34963
		},
		{
			"buffer":0,
			"byteLength":6144,
			"byteOffset":18624,
			"target":34962
		},
		{
			"buffer":0,
			"byteLength":6144,
			"byteOffset":24768,
			"target":34962
		},
		{
			"buffer":0,
			"byteLength":3072,
			"byteOffset":30912,
			"target":34963
		},
		{
			"buffer":0,
			"byteLength":720,
			"byteOffset":33984,
			"target":34962
		},
		{
			"buffer":0,
			"byteLength":720,
			"byteOffset":34704,
			"target":34962
		},
		{
			"buffer":0,
			"byteLength":192,
			"byteOffset":35424,
			"target":34963
		},
		{
			"buffer":0,
			"byteLength":1680,
			"byteOffset":35616,
			"target":34962
		},
		{
			"buffer":0,
			"byteLength":1680,
			"byteOffset":37296,
			"target":34962
		},
		{
			"buffer":0,
			"byteLength":456,
			"byteOffset":38976,
			"target":34963
		},
		{
			"buffer":0,
			"byteLength":292,
			"byteOffset":39432
		},
		{
			"buffer":0,
			"byteLength":876,
			"byteOffset":39724
		},
		{
			"buffer":0,
			"byteLength":1168,
			"byteOffset":40600
		},
		{
			"buffer":0,
			"byteLength":876,
			"byteOffset":41768
		}
	],
	"buffers":[
		{
			"byteLength":42644,
			"uri":"data:application/octet-stream;base64,"
		}
	]
}
