{
	"asset":{
		"generator":"Khronos glTF Blender I/O v3.5.30",
		"version":"2.0"
	},
	"scene":0,
	"scenes":[
		{
			"name":"Scene",
			"nodes":[
				0
			]
		}
	],
	"nodes":[
		{
			"mesh":0,
			"name":"car-micro-green_Cube.595",
			"rotation":[
				0.7071068286895752,
				0,
				0,
				0.7071068286895752
			]
		}
	],
	"animations":[
		{
			"channels":[
				{
					"sampler":0,
					"target":{
						"node":0,
						"path":"translation"
					}
				},
				{
					"sampler":1,
					"target":{
						"node":0,
						"path":"rotation"
					}
				},
				{
					"sampler":2,
					"target":{
						"node":0,
						"path":"scale"
					}
				}
			],
			"name":"car-micro-green_Cube.595",
			"samplers":[
				{
					"input":21,
					"interpolation":"LINEAR",
					"output":22
				},
				{
					"input":21,
					"interpolation":"LINEAR",
					"output":23
				},
				{
					"input":21,
					"interpolation":"LINEAR",
					"output":24
				}
			]
		}
	],
	"materials":[
		{
			"doubleSided":true,
			"name":"carmaterial_green",
			"pbrMetallicRoughness":{
				"baseColorFactor":[
					0.02185700088739395,
					0.4830619990825653,
					0.1321060061454773,
					1
				],
				"metallicFactor":0,
				"roughnessFactor":0.6900347471237183
			}
		},
		{
			"doubleSided":true,
			"name":"windows.006",
			"pbrMetallicRoughness":{
				"baseColorFactor":[
					0.22351999580860138,
					0.45107799768447876,
					0.6399999856948853,
					1
				],
				"metallicFactor":0,
				"roughnessFactor":0.6900347471237183
			}
		},
		{
			"doubleSided":true,
			"name":"lights.006",
			"pbrMetallicRoughness":{
				"baseColorFactor":[
					0.6399999856948853,
					0.6314700245857239,
					0.5094929933547974,
					1
				],
				"metallicFactor":0,
				"roughnessFactor":0.6900347471237183
			}
		},
		{
			"doubleSided":true,
			"name":"metal.006",
			"pbrMetallicRoughness":{
				"baseColorFactor":[
					0.3583829998970032,
					0.3583829998970032,
					0.3583829998970032,
					1
				],
				"metallicFactor":0,
				"roughnessFactor":0.6900347471237183
			}
		},
		{
			"doubleSided":true,
			"name":"tires.006",
			"pbrMetallicRoughness":{
				"baseColorFactor":[
					0.020315000787377357,
					0.020315000787377357,
					0.020315000787377357,
					1
				],
				"metallicFactor":0,
				"roughnessFactor":0.6900347471237183
			}
		},
		{
			"doubleSided":true,
			"name":"lights.red.006",
			"pbrMetallicRoughness":{
				"baseColorFactor":[
					0.800000011920929,
					0.005716000217944384,
					0.00866399984806776,
					1
				],
				"metallicFactor":0,
				"roughnessFactor":0.6900347471237183
			}
		},
		{
			"doubleSided":true,
			"name":"lights.orange.006",
			"pbrMetallicRoughness":{
				"baseColorFactor":[
					0.800000011920929,
					0.2475149929523468,
					0.007284000050276518,
					1
				],
				"metallicFactor":0,
				"roughnessFactor":0.6900347471237183
			}
		}
	],
	"meshes":[
		{
			"name":"car-micro-green_Cube.595",
			"primitives":[
				{
					"attributes":{
						"POSITION":0,
						"NORMAL":1
					},
					"indices":2,
					"material":0
				},
				{
					"attributes":{
						"POSITION":3,
						"NORMAL":4
					},
					"indices":5,
					"material":1
				},
				{
					"attributes":{
						"POSITION":6,
						"NORMAL":7
					},
					"indices":8,
					"material":2
				},
				{
					"attributes":{
						"POSITION":9,
						"NORMAL":10
					},
					"indices":11,
					"material":3
				},
				{
					"attributes":{
						"POSITION":12,
						"NORMAL":13
					},
					"indices":14,
					"material":4
				},
				{
					"attributes":{
						"POSITION":15,
						"NORMAL":16
					},
					"indices":17,
					"material":5
				},
				{
					"attributes":{
						"POSITION":18,
						"NORMAL":19
					},
					"indices":20,
					"material":6
				}
			]
		}
	],
	"accessors":[
		{
			"bufferView":0,
			"componentType":5126,
			"count":406,
			"max":[
				0.8088020086288452,
				1.6680500507354736,
				-0.36000001430511475
			],
			"min":[
				-0.8088020086288452,
				-1.1677900552749634,
				-1.5930780172348022
			],
			"type":"VEC3"
		},
		{
			"bufferView":1,
			"componentType":5126,
			"count":406,
			"type":"VEC3"
		},
		{
			"bufferView":2,
			"componentType":5123,
			"count":1020,
			"type":"SCALAR"
		},
		{
			"bufferView":3,
			"componentType":5126,
			"count":16,
			"max":[
				0.7083619832992554,
				1.0576200485229492,
				-1.0411159992218018
			],
			"min":[
				-0.7083600163459778,
				-0.9400799870491028,
				-1.5211559534072876
			],
			"type":"VEC3"
		},
		{
			"bufferView":4,
			"componentType":5126,
			"count":16,
			"type":"VEC3"
		},
		{
			"bufferView":5,
			"componentType":5123,
			"count":24,
			"type":"SCALAR"
		},
		{
			"bufferView":6,
			"componentType":5126,
			"count":96,
			"max":[
				0.7233219742774963,
				1.594789981842041,
				-0.6697999835014343
			],
			"min":[
				-0.7233160138130188,
				1.5364619493484497,
				-0.7890759706497192
			],
			"type":"VEC3"
		},
		{
			"bufferView":7,
			"componentType":5126,
			"count":96,
			"type":"VEC3"
		},
		{
			"bufferView":8,
			"componentType":5123,
			"count":132,
			"type":"SCALAR"
		},
		{
			"bufferView":9,
			"componentType":5126,
			"count":88,
			"max":[
				0.8160020112991333,
				1.6738560199737549,
				-0.149399995803833
			],
			"min":[
				-0.8160020112991333,
				-0.9103900194168091,
				-0.6391339898109436
			],
			"type":"VEC3"
		},
		{
			"bufferView":10,
			"componentType":5126,
			"count":88,
			"type":"VEC3"
		},
		{
			"bufferView":11,
			"componentType":5123,
			"count":222,
			"type":"SCALAR"
		},
		{
			"bufferView":12,
			"componentType":5126,
			"count":512,
			"max":[
				0.8340020179748535,
				1.5100020170211792,
				0
			],
			"min":[
				-0.8340020179748535,
				-1.059790015220642,
				-0.7200000286102295
			],
			"type":"VEC3"
		},
		{
			"bufferView":13,
			"componentType":5126,
			"count":512,
			"type":"VEC3"
		},
		{
			"bufferView":14,
			"componentType":5123,
			"count":1536,
			"type":"SCALAR"
		},
		{
			"bufferView":15,
			"componentType":5126,
			"count":56,
			"max":[
				0.7713080048561096,
				-0.9493680000305176,
				-0.7659019827842712
			],
			"min":[
				-0.7713119983673096,
				-1.0370539426803589,
				-0.8679839968681335
			],
			"type":"VEC3"
		},
		{
			"bufferView":16,
			"componentType":5126,
			"count":56,
			"type":"VEC3"
		},
		{
			"bufferView":17,
			"componentType":5123,
			"count":96,
			"type":"SCALAR"
		},
		{
			"bufferView":18,
			"componentType":5126,
			"count":180,
			"max":[
				0.7713080048561096,
				1.584223985671997,
				-0.6976780295372009
			],
			"min":[
				-0.7713119983673096,
				-1.0256400108337402,
				-0.9946600198745728
			],
			"type":"VEC3"
		},
		{
			"bufferView":19,
			"componentType":5126,
			"count":180,
			"type":"VEC3"
		},
		{
			"bufferView":20,
			"componentType":5123,
			"count":228,
			"type":"SCALAR"
		},
		{
			"bufferView":21,
			"componentType":5126,
			"count":73,
			"max":[
				3
			],
			"min":[
				0
			],
			"type":"SCALAR"
		},
		{
			"bufferView":22,
			"componentType":5126,
			"count":73,
			"type":"VEC3"
		},
		{
			"bufferView":23,
			"componentType":5126,
			"count":73,
			"type":"VEC4"
		},
		{
			"bufferView":24,
			"componentType":5126,
			"count":73,
			"type":"VEC3"
		}
	],
	"bufferViews":[
		{
			"buffer":0,
			"byteLength":4872,
			"byteOffset":0,
			"target":34962
		},
		{
			"buffer":0,
			"byteLength":4872,
			"byteOffset":4872,
			"target":34962
		},
		{
			"buffer":0,
			"byteLength":2040,
			"byteOffset":9744,
			"target":34963
		},
		{
			"buffer":0,
			"byteLength":192,
			"byteOffset":11784,
			"target":34962
		},
		{
			"buffer":0,
			"byteLength":192,
			"byteOffset":11976,
			"target":34962
		},
		{
			"buffer":0,
			"byteLength":48,
			"byteOffset":12168,
			"target":34963
		},
		{
			"buffer":0,
			"byteLength":1152,
			"byteOffset":12216,
			"target":34962
		},
		{
			"buffer":0,
			"byteLength":1152,
			"byteOffset":13368,
			"target":34962
		},
		{
			"buffer":0,
			"byteLength":264,
			"byteOffset":14520,
			"target":34963
		},
		{
			"buffer":0,
			"byteLength":1056,
			"byteOffset":14784,
			"target":34962
		},
		{
			"buffer":0,
			"byteLength":1056,
			"byteOffset":15840,
			"target":34962
		},
		{
			"buffer":0,
			"byteLength":444,
			"byteOffset":16896,
			"target":34963
		},
		{
			"buffer":0,
			"byteLength":6144,
			"byteOffset":17340,
			"target":34962
		},
		{
			"buffer":0,
			"byteLength":6144,
			"byteOffset":23484,
			"target":34962
		},
		{
			"buffer":0,
			"byteLength":3072,
			"byteOffset":29628,
			"target":34963
		},
		{
			"buffer":0,
			"byteLength":672,
			"byteOffset":32700,
			"target":34962
		},
		{
			"buffer":0,
			"byteLength":672,
			"byteOffset":33372,
			"target":34962
		},
		{
			"buffer":0,
			"byteLength":192,
			"byteOffset":34044,
			"target":34963
		},
		{
			"buffer":0,
			"byteLength":2160,
			"byteOffset":34236,
			"target":34962
		},
		{
			"buffer":0,
			"byteLength":2160,
			"byteOffset":36396,
			"target":34962
		},
		{
			"buffer":0,
			"byteLength":456,
			"byteOffset":38556,
			"target":34963
		},
		{
			"buffer":0,
			"byteLength":292,
			"byteOffset":39012
		},
		{
			"buffer":0,
			"byteLength":876,
			"byteOffset":39304
		},
		{
			"buffer":0,
			"byteLength":1168,
			"byteOffset":40180
		},
		{
			"buffer":0,
			"byteLength":876,
			"byteOffset":41348
		}
	],
	"buffers":[
		{
			"byteLength":42224,
			"uri":"data:application/octet-stream;base64,"
		}
	]
}
