{
	"asset":{
		"generator":"Khronos glTF Blender I/O v3.5.30",
		"version":"2.0"
	},
	"scene":0,
	"scenes":[
		{
			"name":"Scene",
			"nodes":[
				0
			]
		}
	],
	"nodes":[
		{
			"mesh":0,
			"name":"car-coupe-blue_Cube.580",
			"rotation":[
				0.7071068286895752,
				0,
				0,
				0.7071068286895752
			]
		}
	],
	"animations":[
		{
			"channels":[
				{
					"sampler":0,
					"target":{
						"node":0,
						"path":"translation"
					}
				},
				{
					"sampler":1,
					"target":{
						"node":0,
						"path":"rotation"
					}
				},
				{
					"sampler":2,
					"target":{
						"node":0,
						"path":"scale"
					}
				}
			],
			"name":"car-coupe-blue_Cube.580",
			"samplers":[
				{
					"input":21,
					"interpolation":"LINEAR",
					"output":22
				},
				{
					"input":21,
					"interpolation":"LINEAR",
					"output":23
				},
				{
					"input":21,
					"interpolation":"LINEAR",
					"output":24
				}
			]
		}
	],
	"materials":[
		{
			"doubleSided":true,
			"name":"carmaterial_blue",
			"pbrMetallicRoughness":{
				"baseColorFactor":[
					0.02747200056910515,
					0.25119099020957947,
					0.5667009949684143,
					1
				],
				"metallicFactor":0,
				"roughnessFactor":0.6900347471237183
			}
		},
		{
			"doubleSided":true,
			"name":"windows.001",
			"pbrMetallicRoughness":{
				"baseColorFactor":[
					0.22351999580860138,
					0.45107799768447876,
					0.6399999856948853,
					1
				],
				"metallicFactor":0,
				"roughnessFactor":0.6900347471237183
			}
		},
		{
			"doubleSided":true,
			"name":"lights",
			"pbrMetallicRoughness":{
				"baseColorFactor":[
					0.6399999856948853,
					0.6314700245857239,
					0.5094929933547974,
					1
				],
				"metallicFactor":0,
				"roughnessFactor":0.6900347471237183
			}
		},
		{
			"doubleSided":true,
			"name":"metal",
			"pbrMetallicRoughness":{
				"baseColorFactor":[
					0.3583829998970032,
					0.3583829998970032,
					0.3583829998970032,
					1
				],
				"metallicFactor":0,
				"roughnessFactor":0.6900347471237183
			}
		},
		{
			"doubleSided":true,
			"name":"tires",
			"pbrMetallicRoughness":{
				"baseColorFactor":[
					0.020315000787377357,
					0.020315000787377357,
					0.020315000787377357,
					1
				],
				"metallicFactor":0,
				"roughnessFactor":0.6900347471237183
			}
		},
		{
			"doubleSided":true,
			"name":"lights.red",
			"pbrMetallicRoughness":{
				"baseColorFactor":[
					0.800000011920929,
					0.005716000217944384,
					0.00866399984806776,
					1
				],
				"metallicFactor":0,
				"roughnessFactor":0.6900347471237183
			}
		},
		{
			"doubleSided":true,
			"name":"lights.orange",
			"pbrMetallicRoughness":{
				"baseColorFactor":[
					0.800000011920929,
					0.2475149929523468,
					0.007284000050276518,
					1
				],
				"metallicFactor":0,
				"roughnessFactor":0.6900347471237183
			}
		}
	],
	"meshes":[
		{
			"name":"car-coupe-blue_Cube.580",
			"primitives":[
				{
					"attributes":{
						"POSITION":0,
						"NORMAL":1
					},
					"indices":2,
					"material":0
				},
				{
					"attributes":{
						"POSITION":3,
						"NORMAL":4
					},
					"indices":5,
					"material":1
				},
				{
					"attributes":{
						"POSITION":6,
						"NORMAL":7
					},
					"indices":8,
					"material":2
				},
				{
					"attributes":{
						"POSITION":9,
						"NORMAL":10
					},
					"indices":11,
					"material":3
				},
				{
					"attributes":{
						"POSITION":12,
						"NORMAL":13
					},
					"indices":14,
					"material":4
				},
				{
					"attributes":{
						"POSITION":15,
						"NORMAL":16
					},
					"indices":17,
					"material":5
				},
				{
					"attributes":{
						"POSITION":18,
						"NORMAL":19
					},
					"indices":20,
					"material":6
				}
			]
		}
	],
	"accessors":[
		{
			"bufferView":0,
			"componentType":5126,
			"count":544,
			"max":[
				0.8288000226020813,
				1.9803019762039185,
				-0.18000000715255737
			],
			"min":[
				-0.8288000226020813,
				-1.9938219785690308,
				-1.3620959520339966
			],
			"type":"VEC3"
		},
		{
			"bufferView":1,
			"componentType":5126,
			"count":544,
			"type":"VEC3"
		},
		{
			"bufferView":2,
			"componentType":5123,
			"count":1380,
			"type":"SCALAR"
		},
		{
			"bufferView":3,
			"componentType":5126,
			"count":24,
			"max":[
				0.7302299737930298,
				0.5908100008964539,
				-0.9271659851074219
			],
			"min":[
				-0.7277600169181824,
				-1.5973860025405884,
				-1.30826997756958
			],
			"type":"VEC3"
		},
		{
			"bufferView":4,
			"componentType":5126,
			"count":24,
			"type":"VEC3"
		},
		{
			"bufferView":5,
			"componentType":5123,
			"count":36,
			"type":"SCALAR"
		},
		{
			"bufferView":6,
			"componentType":5126,
			"count":72,
			"max":[
				0.7297999858856201,
				1.9478520154953003,
				-0.573199987411499
			],
			"min":[
				-0.7297999858856201,
				-1.947402000427246,
				-0.8460320234298706
			],
			"type":"VEC3"
		},
		{
			"bufferView":7,
			"componentType":5126,
			"count":72,
			"type":"VEC3"
		},
		{
			"bufferView":8,
			"componentType":5123,
			"count":108,
			"type":"SCALAR"
		},
		{
			"bufferView":9,
			"componentType":5126,
			"count":80,
			"max":[
				0.8360000252723694,
				1.9479000568389893,
				-0.149399995803833
			],
			"min":[
				-0.8360000252723694,
				-1.450674057006836,
				-0.7081339955329895
			],
			"type":"VEC3"
		},
		{
			"bufferView":10,
			"componentType":5126,
			"count":80,
			"type":"VEC3"
		},
		{
			"bufferView":11,
			"componentType":5123,
			"count":210,
			"type":"SCALAR"
		},
		{
			"bufferView":12,
			"componentType":5126,
			"count":512,
			"max":[
				0.8539999723434448,
				1.5699280500411987,
				0
			],
			"min":[
				-0.8539999723434448,
				-1.600074052810669,
				-0.7200000286102295
			],
			"type":"VEC3"
		},
		{
			"bufferView":13,
			"componentType":5126,
			"count":512,
			"type":"VEC3"
		},
		{
			"bufferView":14,
			"componentType":5123,
			"count":1536,
			"type":"SCALAR"
		},
		{
			"bufferView":15,
			"componentType":5126,
			"count":28,
			"max":[
				0.7173879742622375,
				-1.9271680116653442,
				-0.766156017780304
			],
			"min":[
				-0.7173879742622375,
				-1.947402000427246,
				-0.8460320234298706
			],
			"type":"VEC3"
		},
		{
			"bufferView":16,
			"componentType":5126,
			"count":28,
			"type":"VEC3"
		},
		{
			"bufferView":17,
			"componentType":5123,
			"count":48,
			"type":"SCALAR"
		},
		{
			"bufferView":18,
			"componentType":5126,
			"count":24,
			"max":[
				0.7173879742622375,
				-1.9271680116653442,
				-0.766156017780304
			],
			"min":[
				-0.7173879742622375,
				-1.947402000427246,
				-0.8460320234298706
			],
			"type":"VEC3"
		},
		{
			"bufferView":19,
			"componentType":5126,
			"count":24,
			"type":"VEC3"
		},
		{
			"bufferView":20,
			"componentType":5123,
			"count":36,
			"type":"SCALAR"
		},
		{
			"bufferView":21,
			"componentType":5126,
			"count":73,
			"max":[
				3
			],
			"min":[
				0
			],
			"type":"SCALAR"
		},
		{
			"bufferView":22,
			"componentType":5126,
			"count":73,
			"type":"VEC3"
		},
		{
			"bufferView":23,
			"componentType":5126,
			"count":73,
			"type":"VEC4"
		},
		{
			"bufferView":24,
			"componentType":5126,
			"count":73,
			"type":"VEC3"
		}
	],
	"bufferViews":[
		{
			"buffer":0,
			"byteLength":6528,
			"byteOffset":0,
			"target":34962
		},
		{
			"buffer":0,
			"byteLength":6528,
			"byteOffset":6528,
			"target":34962
		},
		{
			"buffer":0,
			"byteLength":2760,
			"byteOffset":13056,
			"target":34963
		},
		{
			"buffer":0,
			"byteLength":288,
			"byteOffset":15816,
			"target":34962
		},
		{
			"buffer":0,
			"byteLength":288,
			"byteOffset":16104,
			"target":34962
		},
		{
			"buffer":0,
			"byteLength":72,
			"byteOffset":16392,
			"target":34963
		},
		{
			"buffer":0,
			"byteLength":864,
			"byteOffset":16464,
			"target":34962
		},
		{
			"buffer":0,
			"byteLength":864,
			"byteOffset":17328,
			"target":34962
		},
		{
			"buffer":0,
			"byteLength":216,
			"byteOffset":18192,
			"target":34963
		},
		{
			"buffer":0,
			"byteLength":960,
			"byteOffset":18408,
			"target":34962
		},
		{
			"buffer":0,
			"byteLength":960,
			"byteOffset":19368,
			"target":34962
		},
		{
			"buffer":0,
			"byteLength":420,
			"byteOffset":20328,
			"target":34963
		},
		{
			"buffer":0,
			"byteLength":6144,
			"byteOffset":20748,
			"target":34962
		},
		{
			"buffer":0,
			"byteLength":6144,
			"byteOffset":26892,
			"target":34962
		},
		{
			"buffer":0,
			"byteLength":3072,
			"byteOffset":33036,
			"target":34963
		},
		{
			"buffer":0,
			"byteLength":336,
			"byteOffset":36108,
			"target":34962
		},
		{
			"buffer":0,
			"byteLength":336,
			"byteOffset":36444,
			"target":34962
		},
		{
			"buffer":0,
			"byteLength":96,
			"byteOffset":36780,
			"target":34963
		},
		{
			"buffer":0,
			"byteLength":288,
			"byteOffset":36876,
			"target":34962
		},
		{
			"buffer":0,
			"byteLength":288,
			"byteOffset":37164,
			"target":34962
		},
		{
			"buffer":0,
			"byteLength":72,
			"byteOffset":37452,
			"target":34963
		},
		{
			"buffer":0,
			"byteLength":292,
			"byteOffset":37524
		},
		{
			"buffer":0,
			"byteLength":876,
			"byteOffset":37816
		},
		{
			"buffer":0,
			"byteLength":1168,
			"byteOffset":38692
		},
		{
			"buffer":0,
			"byteLength":876,
			"byteOffset":39860
		}
	],
	"buffers":[
		{
			"byteLength":40736,
			"uri":"data:application/octet-stream;base64,"
		}
	]
}
