{
	"asset":{
		"generator":"Khronos glTF Blender I/O v3.5.30",
		"version":"2.0"
	},
	"scene":0,
	"scenes":[
		{
			"name":"Scene",
			"nodes":[
				0
			]
		}
	],
	"nodes":[
		{
			"mesh":0,
			"name":"car-microcargo-red_Cube.620",
			"rotation":[
				0.7071068286895752,
				0,
				0,
				0.7071068286895752
			]
		}
	],
	"animations":[
		{
			"channels":[
				{
					"sampler":0,
					"target":{
						"node":0,
						"path":"translation"
					}
				},
				{
					"sampler":1,
					"target":{
						"node":0,
						"path":"rotation"
					}
				},
				{
					"sampler":2,
					"target":{
						"node":0,
						"path":"scale"
					}
				}
			],
			"name":"car-microcargo-red_Cube.620",
			"samplers":[
				{
					"input":21,
					"interpolation":"LINEAR",
					"output":22
				},
				{
					"input":21,
					"interpolation":"LINEAR",
					"output":23
				},
				{
					"input":21,
					"interpolation":"LINEAR",
					"output":24
				}
			]
		}
	],
	"materials":[
		{
			"doubleSided":true,
			"name":"carmaterial_red.001",
			"pbrMetallicRoughness":{
				"baseColorFactor":[
					0.6392819881439209,
					0.05781799927353859,
					0.03614899888634682,
					1
				],
				"metallicFactor":0,
				"roughnessFactor":0.6900347471237183
			}
		},
		{
			"doubleSided":true,
			"name":"windows.010",
			"pbrMetallicRoughness":{
				"baseColorFactor":[
					0.22351999580860138,
					0.45107799768447876,
					0.6399999856948853,
					1
				],
				"metallicFactor":0,
				"roughnessFactor":0.6900347471237183
			}
		},
		{
			"doubleSided":true,
			"name":"lights.010",
			"pbrMetallicRoughness":{
				"baseColorFactor":[
					0.6399999856948853,
					0.6314700245857239,
					0.5094929933547974,
					1
				],
				"metallicFactor":0,
				"roughnessFactor":0.6900347471237183
			}
		},
		{
			"doubleSided":true,
			"name":"metal.010",
			"pbrMetallicRoughness":{
				"baseColorFactor":[
					0.3583829998970032,
					0.3583829998970032,
					0.3583829998970032,
					1
				],
				"metallicFactor":0,
				"roughnessFactor":0.6900347471237183
			}
		},
		{
			"doubleSided":true,
			"name":"tires.010",
			"pbrMetallicRoughness":{
				"baseColorFactor":[
					0.020315000787377357,
					0.020315000787377357,
					0.020315000787377357,
					1
				],
				"metallicFactor":0,
				"roughnessFactor":0.6900347471237183
			}
		},
		{
			"doubleSided":true,
			"name":"lights.red.010",
			"pbrMetallicRoughness":{
				"baseColorFactor":[
					0.800000011920929,
					0.005716000217944384,
					0.00866399984806776,
					1
				],
				"metallicFactor":0,
				"roughnessFactor":0.6900347471237183
			}
		},
		{
			"doubleSided":true,
			"name":"lights.orange.010",
			"pbrMetallicRoughness":{
				"baseColorFactor":[
					0.800000011920929,
					0.2475149929523468,
					0.007284000050276518,
					1
				],
				"metallicFactor":0,
				"roughnessFactor":0.6900347471237183
			}
		}
	],
	"meshes":[
		{
			"name":"car-microcargo-red_Cube.620",
			"primitives":[
				{
					"attributes":{
						"POSITION":0,
						"NORMAL":1
					},
					"indices":2,
					"material":0
				},
				{
					"attributes":{
						"POSITION":3,
						"NORMAL":4
					},
					"indices":5,
					"material":1
				},
				{
					"attributes":{
						"POSITION":6,
						"NORMAL":7
					},
					"indices":8,
					"material":2
				},
				{
					"attributes":{
						"POSITION":9,
						"NORMAL":10
					},
					"indices":11,
					"material":3
				},
				{
					"attributes":{
						"POSITION":12,
						"NORMAL":13
					},
					"indices":14,
					"material":4
				},
				{
					"attributes":{
						"POSITION":15,
						"NORMAL":16
					},
					"indices":17,
					"material":5
				},
				{
					"attributes":{
						"POSITION":18,
						"NORMAL":19
					},
					"indices":20,
					"material":6
				}
			]
		}
	],
	"accessors":[
		{
			"bufferView":0,
			"componentType":5126,
			"count":441,
			"max":[
				0.870244026184082,
				1.98812997341156,
				-0.3779999911785126
			],
			"min":[
				-0.8702419996261597,
				-1.643507957458496,
				-1.9026000499725342
			],
			"type":"VEC3"
		},
		{
			"bufferView":1,
			"componentType":5126,
			"count":441,
			"type":"VEC3"
		},
		{
			"bufferView":2,
			"componentType":5123,
			"count":1131,
			"type":"SCALAR"
		},
		{
			"bufferView":3,
			"componentType":5126,
			"count":20,
			"max":[
				0.7647799849510193,
				1.0247819423675537,
				-1.2390379905700684
			],
			"min":[
				-0.7647780179977417,
				-1.5268280506134033,
				-1.8270820379257202
			],
			"type":"VEC3"
		},
		{
			"bufferView":4,
			"componentType":5126,
			"count":20,
			"type":"VEC3"
		},
		{
			"bufferView":5,
			"componentType":5123,
			"count":30,
			"type":"SCALAR"
		},
		{
			"bufferView":6,
			"componentType":5126,
			"count":112,
			"max":[
				0.6528940200805664,
				1.9825940132141113,
				-0.7104899883270264
			],
			"min":[
				-0.6528840065002441,
				1.9248160123825073,
				-0.9374399781227112
			],
			"type":"VEC3"
		},
		{
			"bufferView":7,
			"componentType":5126,
			"count":112,
			"type":"VEC3"
		},
		{
			"bufferView":8,
			"componentType":5123,
			"count":132,
			"type":"SCALAR"
		},
		{
			"bufferView":9,
			"componentType":5126,
			"count":90,
			"max":[
				0.8778020143508911,
				1.996142029762268,
				-0.15686999261379242
			],
			"min":[
				-0.8778020143508911,
				-1.1937819719314575,
				-0.9373700022697449
			],
			"type":"VEC3"
		},
		{
			"bufferView":10,
			"componentType":5126,
			"count":90,
			"type":"VEC3"
		},
		{
			"bufferView":11,
			"componentType":5123,
			"count":222,
			"type":"SCALAR"
		},
		{
			"bufferView":12,
			"componentType":5126,
			"count":512,
			"max":[
				0.896701991558075,
				1.7046300172805786,
				0
			],
			"min":[
				-0.896701991558075,
				-1.3506519794464111,
				-0.7559999823570251
			],
			"type":"VEC3"
		},
		{
			"bufferView":13,
			"componentType":5126,
			"count":512,
			"type":"VEC3"
		},
		{
			"bufferView":14,
			"componentType":5123,
			"count":1536,
			"type":"SCALAR"
		},
		{
			"bufferView":15,
			"componentType":5126,
			"count":40,
			"max":[
				0.723468005657196,
				-1.5872739553451538,
				-0.9050899744033813
			],
			"min":[
				-0.7234740257263184,
				-1.625506043434143,
				-1.06004798412323
			],
			"type":"VEC3"
		},
		{
			"bufferView":16,
			"componentType":5126,
			"count":40,
			"type":"VEC3"
		},
		{
			"bufferView":17,
			"componentType":5123,
			"count":60,
			"type":"SCALAR"
		},
		{
			"bufferView":18,
			"componentType":5126,
			"count":164,
			"max":[
				0.7398319840431213,
				1.958564043045044,
				-0.8466140031814575
			],
			"min":[
				-0.7398239970207214,
				-1.6139379739761353,
				-1.1652040481567383
			],
			"type":"VEC3"
		},
		{
			"bufferView":19,
			"componentType":5126,
			"count":164,
			"type":"VEC3"
		},
		{
			"bufferView":20,
			"componentType":5123,
			"count":192,
			"type":"SCALAR"
		},
		{
			"bufferView":21,
			"componentType":5126,
			"count":73,
			"max":[
				3
			],
			"min":[
				0
			],
			"type":"SCALAR"
		},
		{
			"bufferView":22,
			"componentType":5126,
			"count":73,
			"type":"VEC3"
		},
		{
			"bufferView":23,
			"componentType":5126,
			"count":73,
			"type":"VEC4"
		},
		{
			"bufferView":24,
			"componentType":5126,
			"count":73,
			"type":"VEC3"
		}
	],
	"bufferViews":[
		{
			"buffer":0,
			"byteLength":5292,
			"byteOffset":0,
			"target":34962
		},
		{
			"buffer":0,
			"byteLength":5292,
			"byteOffset":5292,
			"target":34962
		},
		{
			"buffer":0,
			"byteLength":2262,
			"byteOffset":10584,
			"target":34963
		},
		{
			"buffer":0,
			"byteLength":240,
			"byteOffset":12848,
			"target":34962
		},
		{
			"buffer":0,
			"byteLength":240,
			"byteOffset":13088,
			"target":34962
		},
		{
			"buffer":0,
			"byteLength":60,
			"byteOffset":13328,
			"target":34963
		},
		{
			"buffer":0,
			"byteLength":1344,
			"byteOffset":13388,
			"target":34962
		},
		{
			"buffer":0,
			"byteLength":1344,
			"byteOffset":14732,
			"target":34962
		},
		{
			"buffer":0,
			"byteLength":264,
			"byteOffset":16076,
			"target":34963
		},
		{
			"buffer":0,
			"byteLength":1080,
			"byteOffset":16340,
			"target":34962
		},
		{
			"buffer":0,
			"byteLength":1080,
			"byteOffset":17420,
			"target":34962
		},
		{
			"buffer":0,
			"byteLength":444,
			"byteOffset":18500,
			"target":34963
		},
		{
			"buffer":0,
			"byteLength":6144,
			"byteOffset":18944,
			"target":34962
		},
		{
			"buffer":0,
			"byteLength":6144,
			"byteOffset":25088,
			"target":34962
		},
		{
			"buffer":0,
			"byteLength":3072,
			"byteOffset":31232,
			"target":34963
		},
		{
			"buffer":0,
			"byteLength":480,
			"byteOffset":34304,
			"target":34962
		},
		{
			"buffer":0,
			"byteLength":480,
			"byteOffset":34784,
			"target":34962
		},
		{
			"buffer":0,
			"byteLength":120,
			"byteOffset":35264,
			"target":34963
		},
		{
			"buffer":0,
			"byteLength":1968,
			"byteOffset":35384,
			"target":34962
		},
		{
			"buffer":0,
			"byteLength":1968,
			"byteOffset":37352,
			"target":34962
		},
		{
			"buffer":0,
			"byteLength":384,
			"byteOffset":39320,
			"target":34963
		},
		{
			"buffer":0,
			"byteLength":292,
			"byteOffset":39704
		},
		{
			"buffer":0,
			"byteLength":876,
			"byteOffset":39996
		},
		{
			"buffer":0,
			"byteLength":1168,
			"byteOffset":40872
		},
		{
			"buffer":0,
			"byteLength":876,
			"byteOffset":42040
		}
	],
	"buffers":[
		{
			"byteLength":42916,
			"uri":"data:application/octet-stream;base64,"
		}
	]
}
