{
	"asset":{
		"generator":"Khronos glTF Blender I/O v3.6.28",
		"version":"2.0"
	},
	"extensionsUsed":[
		"KHR_materials_specular",
		"KHR_materials_ior"
	],
	"scene":0,
	"scenes":[
		{
			"name":"Scene",
			"nodes":[
				2
			]
		}
	],
	"nodes":[
		{
			"mesh":0,
			"name":"chimney.003"
		},
		{
			"mesh":1,
			"name":"doorway walkup.002",
			"translation":[
				0,
				0,
				-1
			]
		},
		{
			"children":[
				0,
				1
			],
			"mesh":2,
			"name":"house-modern_Cube.037",
			"rotation":[
				0.7071068286895752,
				0,
				0,
				0.7071068286895752
			]
		}
	],
	"materials":[
		{
			"doubleSided":true,
			"extensions":{
				"KHR_materials_specular":{
					"specularColorFactor":[
						1,
						1,
						1
					]
				},
				"KHR_materials_ior":{
					"ior":1
				}
			},
			"name":"baseatlas",
			"pbrMetallicRoughness":{
				"baseColorTexture":{
					"index":0
				},
				"metallicFactor":0,
				"roughnessFactor":0.7234668731689453
			}
		}
	],
	"meshes":[
		{
			"name":"house-modern_Cube.002",
			"primitives":[
				{
					"attributes":{
						"POSITION":0,
						"NORMAL":1,
						"TEXCOORD_0":2
					},
					"indices":3,
					"material":0
				}
			]
		},
		{
			"name":"house-small-garage_Cube.006",
			"primitives":[
				{
					"attributes":{
						"POSITION":4,
						"NORMAL":5,
						"TEXCOORD_0":6
					},
					"indices":7,
					"material":0
				}
			]
		},
		{
			"name":"house-modern_Cube.037",
			"primitives":[
				{
					"attributes":{
						"POSITION":8,
						"NORMAL":9,
						"TEXCOORD_0":10
					},
					"indices":11,
					"material":0
				}
			]
		}
	],
	"textures":[
		{
			"sampler":0,
			"source":0
		}
	],
	"images":[
		{
			"bufferView":4,
			"mimeType":"image/jpeg",
			"name":"basetexture"
		}
	],
	"accessors":[
		{
			"bufferView":0,
			"componentType":5126,
			"count":40,
			"max":[
				-0.1975480020046234,
				0.5102750062942505,
				-5.101317882537842
			],
			"min":[
				-0.6873540282249451,
				0.0011769999982789159,
				-5.661317825317383
			],
			"type":"VEC3"
		},
		{
			"bufferView":1,
			"componentType":5126,
			"count":40,
			"type":"VEC3"
		},
		{
			"bufferView":2,
			"componentType":5126,
			"count":40,
			"type":"VEC2"
		},
		{
			"bufferView":3,
			"componentType":5123,
			"count":72,
			"type":"SCALAR"
		},
		{
			"bufferView":5,
			"componentType":5126,
			"count":20,
			"max":[
				0.3749980032444,
				4,
				-1
			],
			"min":[
				-0.37500500679016113,
				1.8999979496002197,
				-1.1000009775161743
			],
			"type":"VEC3"
		},
		{
			"bufferView":6,
			"componentType":5126,
			"count":20,
			"type":"VEC3"
		},
		{
			"bufferView":7,
			"componentType":5126,
			"count":20,
			"type":"VEC2"
		},
		{
			"bufferView":8,
			"componentType":5123,
			"count":36,
			"type":"SCALAR"
		},
		{
			"bufferView":9,
			"componentType":5126,
			"count":500,
			"max":[
				2.0019969940185547,
				3.2107200622558594,
				-1.9999979734420776
			],
			"min":[
				-2.794822931289673,
				-2.2024080753326416,
				-5.102002143859863
			],
			"type":"VEC3"
		},
		{
			"bufferView":10,
			"componentType":5126,
			"count":500,
			"type":"VEC3"
		},
		{
			"bufferView":11,
			"componentType":5126,
			"count":500,
			"type":"VEC2"
		},
		{
			"bufferView":12,
			"componentType":5123,
			"count":867,
			"type":"SCALAR"
		}
	],
	"bufferViews":[
		{
			"buffer":0,
			"byteLength":480,
			"byteOffset":0,
			"target":34962
		},
		{
			"buffer":0,
			"byteLength":480,
			"byteOffset":480,
			"target":34962
		},
		{
			"buffer":0,
			"byteLength":320,
			"byteOffset":960,
			"target":34962
		},
		{
			"buffer":0,
			"byteLength":144,
			"byteOffset":1280,
			"target":34963
		},
		{
			"buffer":0,
			"byteLength":15081,
			"byteOffset":1424
		},
		{
			"buffer":0,
			"byteLength":240,
			"byteOffset":16508,
			"target":34962
		},
		{
			"buffer":0,
			"byteLength":240,
			"byteOffset":16748,
			"target":34962
		},
		{
			"buffer":0,
			"byteLength":160,
			"byteOffset":16988,
			"target":34962
		},
		{
			"buffer":0,
			"byteLength":72,
			"byteOffset":17148,
			"target":34963
		},
		{
			"buffer":0,
			"byteLength":6000,
			"byteOffset":17220,
			"target":34962
		},
		{
			"buffer":0,
			"byteLength":6000,
			"byteOffset":23220,
			"target":34962
		},
		{
			"buffer":0,
			"byteLength":4000,
			"byteOffset":29220,
			"target":34962
		},
		{
			"buffer":0,
			"byteLength":1734,
			"byteOffset":33220,
			"target":34963
		}
	],
	"samplers":[
		{
			"magFilter":9729,
			"minFilter":9987
		}
	],
	"buffers":[
		{
			"byteLength":34956,
			"uri":"data:application/octet-stream;base64,"
		}
	]
}
