{
	"asset":{
		"generator":"Khronos glTF Blender I/O v3.6.28",
		"version":"2.0"
	},
	"extensionsUsed":[
		"KHR_materials_specular",
		"KHR_materials_ior"
	],
	"scene":0,
	"scenes":[
		{
			"name":"Scene",
			"nodes":[
				2
			]
		}
	],
	"nodes":[
		{
			"mesh":0,
			"name":"Chimney"
		},
		{
			"mesh":1,
			"name":"doorway walkup.001"
		},
		{
			"children":[
				0,
				1
			],
			"mesh":2,
			"name":"house-small-garage_Cube.000",
			"rotation":[
				0.7071068286895752,
				0,
				0,
				0.7071068286895752
			]
		}
	],
	"materials":[
		{
			"doubleSided":true,
			"extensions":{
				"KHR_materials_specular":{
					"specularColorFactor":[
						1,
						1,
						1
					]
				},
				"KHR_materials_ior":{
					"ior":1
				}
			},
			"name":"baseatlas",
			"pbrMetallicRoughness":{
				"baseColorTexture":{
					"index":0
				},
				"metallicFactor":0,
				"roughnessFactor":0.7234668731689453
			}
		}
	],
	"meshes":[
		{
			"name":"house-small-garage_Cube.011",
			"primitives":[
				{
					"attributes":{
						"POSITION":0,
						"NORMAL":1,
						"TEXCOORD_0":2
					},
					"indices":3,
					"material":0
				}
			]
		},
		{
			"name":"house-small-garage_Cube.005",
			"primitives":[
				{
					"attributes":{
						"POSITION":4,
						"NORMAL":5,
						"TEXCOORD_0":6
					},
					"indices":7,
					"material":0
				}
			]
		},
		{
			"name":"house-small-garage_Cube.000",
			"primitives":[
				{
					"attributes":{
						"POSITION":8,
						"NORMAL":9,
						"TEXCOORD_0":10
					},
					"indices":11,
					"material":0
				}
			]
		}
	],
	"textures":[
		{
			"sampler":0,
			"source":0
		}
	],
	"images":[
		{
			"bufferView":4,
			"mimeType":"image/jpeg",
			"name":"basetexture"
		}
	],
	"accessors":[
		{
			"bufferView":0,
			"componentType":5126,
			"count":64,
			"max":[
				0.4301779866218567,
				-0.8650969862937927,
				-3.798182964324951
			],
			"min":[
				-0.05447499826550484,
				-1.3341039419174194,
				-4.687800884246826
			],
			"type":"VEC3"
		},
		{
			"bufferView":1,
			"componentType":5126,
			"count":64,
			"type":"VEC3"
		},
		{
			"bufferView":2,
			"componentType":5126,
			"count":64,
			"type":"VEC2"
		},
		{
			"bufferView":3,
			"componentType":5123,
			"count":120,
			"type":"SCALAR"
		},
		{
			"bufferView":5,
			"componentType":5126,
			"count":20,
			"max":[
				0.3749980032444,
				4,
				-1
			],
			"min":[
				-0.37500500679016113,
				1.8999979496002197,
				-1.1000009775161743
			],
			"type":"VEC3"
		},
		{
			"bufferView":6,
			"componentType":5126,
			"count":20,
			"type":"VEC3"
		},
		{
			"bufferView":7,
			"componentType":5126,
			"count":20,
			"type":"VEC2"
		},
		{
			"bufferView":8,
			"componentType":5123,
			"count":36,
			"type":"SCALAR"
		},
		{
			"bufferView":9,
			"componentType":5126,
			"count":593,
			"max":[
				3.8141350746154785,
				2.2263081073760986,
				-1
			],
			"min":[
				-3.2000861167907715,
				-3.2367169857025146,
				-4.307744979858398
			],
			"type":"VEC3"
		},
		{
			"bufferView":10,
			"componentType":5126,
			"count":593,
			"type":"VEC3"
		},
		{
			"bufferView":11,
			"componentType":5126,
			"count":593,
			"type":"VEC2"
		},
		{
			"bufferView":12,
			"componentType":5123,
			"count":969,
			"type":"SCALAR"
		}
	],
	"bufferViews":[
		{
			"buffer":0,
			"byteLength":768,
			"byteOffset":0,
			"target":34962
		},
		{
			"buffer":0,
			"byteLength":768,
			"byteOffset":768,
			"target":34962
		},
		{
			"buffer":0,
			"byteLength":512,
			"byteOffset":1536,
			"target":34962
		},
		{
			"buffer":0,
			"byteLength":240,
			"byteOffset":2048,
			"target":34963
		},
		{
			"buffer":0,
			"byteLength":15081,
			"byteOffset":2288
		},
		{
			"buffer":0,
			"byteLength":240,
			"byteOffset":17372,
			"target":34962
		},
		{
			"buffer":0,
			"byteLength":240,
			"byteOffset":17612,
			"target":34962
		},
		{
			"buffer":0,
			"byteLength":160,
			"byteOffset":17852,
			"target":34962
		},
		{
			"buffer":0,
			"byteLength":72,
			"byteOffset":18012,
			"target":34963
		},
		{
			"buffer":0,
			"byteLength":7116,
			"byteOffset":18084,
			"target":34962
		},
		{
			"buffer":0,
			"byteLength":7116,
			"byteOffset":25200,
			"target":34962
		},
		{
			"buffer":0,
			"byteLength":4744,
			"byteOffset":32316,
			"target":34962
		},
		{
			"buffer":0,
			"byteLength":1938,
			"byteOffset":37060,
			"target":34963
		}
	],
	"samplers":[
		{
			"magFilter":9729,
			"minFilter":9987
		}
	],
	"buffers":[
		{
			"byteLength":39000,
			"uri":"data:application/octet-stream;base64,"
		}
	]
}
