{
	"asset":{
		"generator":"Khronos glTF Blender I/O v3.6.28",
		"version":"2.0"
	},
	"extensionsUsed":[
		"KHR_materials_specular",
		"KHR_materials_ior"
	],
	"scene":0,
	"scenes":[
		{
			"name":"Scene",
			"nodes":[
				2
			]
		}
	],
	"nodes":[
		{
			"mesh":0,
			"name":"chimney.004"
		},
		{
			"mesh":1,
			"name":"doorway walkup.003"
		},
		{
			"children":[
				0,
				1
			],
			"mesh":2,
			"name":"house-small.2_Cube.008",
			"rotation":[
				0.7071068286895752,
				0,
				0,
				0.7071068286895752
			]
		}
	],
	"materials":[
		{
			"doubleSided":true,
			"extensions":{
				"KHR_materials_specular":{
					"specularColorFactor":[
						1,
						1,
						1
					]
				},
				"KHR_materials_ior":{
					"ior":1
				}
			},
			"name":"baseatlas",
			"pbrMetallicRoughness":{
				"baseColorTexture":{
					"index":0
				},
				"metallicFactor":0,
				"roughnessFactor":0.7234668731689453
			}
		}
	],
	"meshes":[
		{
			"name":"house-small.2_Cube.002",
			"primitives":[
				{
					"attributes":{
						"POSITION":0,
						"NORMAL":1,
						"TEXCOORD_0":2
					},
					"indices":3,
					"material":0
				}
			]
		},
		{
			"name":"house-small-garage_Cube.007",
			"primitives":[
				{
					"attributes":{
						"POSITION":4,
						"NORMAL":5,
						"TEXCOORD_0":6
					},
					"indices":7,
					"material":0
				}
			]
		},
		{
			"name":"house-small.2_Cube.008",
			"primitives":[
				{
					"attributes":{
						"POSITION":8,
						"NORMAL":9,
						"TEXCOORD_0":10
					},
					"indices":11,
					"material":0
				}
			]
		}
	],
	"textures":[
		{
			"sampler":0,
			"source":0
		}
	],
	"images":[
		{
			"bufferView":4,
			"mimeType":"image/jpeg",
			"name":"basetexture"
		}
	],
	"accessors":[
		{
			"bufferView":0,
			"componentType":5126,
			"count":68,
			"max":[
				2.030992031097412,
				-0.8650979995727539,
				-3.6481568813323975
			],
			"min":[
				1.5463390350341797,
				-1.3341050148010254,
				-4.337775230407715
			],
			"type":"VEC3"
		},
		{
			"bufferView":1,
			"componentType":5126,
			"count":68,
			"type":"VEC3"
		},
		{
			"bufferView":2,
			"componentType":5126,
			"count":68,
			"type":"VEC2"
		},
		{
			"bufferView":3,
			"componentType":5123,
			"count":126,
			"type":"SCALAR"
		},
		{
			"bufferView":5,
			"componentType":5126,
			"count":20,
			"max":[
				0.3749980032444,
				4,
				-1
			],
			"min":[
				-0.37500500679016113,
				1.8999979496002197,
				-1.1000009775161743
			],
			"type":"VEC3"
		},
		{
			"bufferView":6,
			"componentType":5126,
			"count":20,
			"type":"VEC3"
		},
		{
			"bufferView":7,
			"componentType":5126,
			"count":20,
			"type":"VEC2"
		},
		{
			"bufferView":8,
			"componentType":5123,
			"count":36,
			"type":"SCALAR"
		},
		{
			"bufferView":9,
			"componentType":5126,
			"count":309,
			"max":[
				2.1250009536743164,
				2.1547958850860596,
				-1
			],
			"min":[
				-2.7249999046325684,
				-3.15632700920105,
				-4.157718181610107
			],
			"type":"VEC3"
		},
		{
			"bufferView":10,
			"componentType":5126,
			"count":309,
			"type":"VEC3"
		},
		{
			"bufferView":11,
			"componentType":5126,
			"count":309,
			"type":"VEC2"
		},
		{
			"bufferView":12,
			"componentType":5123,
			"count":594,
			"type":"SCALAR"
		}
	],
	"bufferViews":[
		{
			"buffer":0,
			"byteLength":816,
			"byteOffset":0,
			"target":34962
		},
		{
			"buffer":0,
			"byteLength":816,
			"byteOffset":816,
			"target":34962
		},
		{
			"buffer":0,
			"byteLength":544,
			"byteOffset":1632,
			"target":34962
		},
		{
			"buffer":0,
			"byteLength":252,
			"byteOffset":2176,
			"target":34963
		},
		{
			"buffer":0,
			"byteLength":15081,
			"byteOffset":2428
		},
		{
			"buffer":0,
			"byteLength":240,
			"byteOffset":17512,
			"target":34962
		},
		{
			"buffer":0,
			"byteLength":240,
			"byteOffset":17752,
			"target":34962
		},
		{
			"buffer":0,
			"byteLength":160,
			"byteOffset":17992,
			"target":34962
		},
		{
			"buffer":0,
			"byteLength":72,
			"byteOffset":18152,
			"target":34963
		},
		{
			"buffer":0,
			"byteLength":3708,
			"byteOffset":18224,
			"target":34962
		},
		{
			"buffer":0,
			"byteLength":3708,
			"byteOffset":21932,
			"target":34962
		},
		{
			"buffer":0,
			"byteLength":2472,
			"byteOffset":25640,
			"target":34962
		},
		{
			"buffer":0,
			"byteLength":1188,
			"byteOffset":28112,
			"target":34963
		}
	],
	"samplers":[
		{
			"magFilter":9729,
			"minFilter":9987
		}
	],
	"buffers":[
		{
			"byteLength":29300,
			"uri":"data:application/octet-stream;base64,"
		}
	]
}
