{
	"asset":{
		"generator":"Khronos glTF Blender I/O v3.6.28",
		"version":"2.0"
	},
	"extensionsUsed":[
		"KHR_materials_specular",
		"KHR_materials_ior"
	],
	"scene":0,
	"scenes":[
		{
			"name":"Scene",
			"nodes":[
				3
			]
		}
	],
	"nodes":[
		{
			"mesh":0,
			"name":"chimney.001"
		},
		{
			"mesh":1,
			"name":"doorway walkway"
		},
		{
			"mesh":2,
			"name":"pool",
			"translation":[
				0.017000198364257812,
				0,
				0
			]
		},
		{
			"children":[
				0,
				1,
				2
			],
			"mesh":3,
			"name":"house-luxurious_Cube.010",
			"rotation":[
				0,
				-0.7071068286895752,
				0.7071068286895752,
				5.338509012631221e-08
			]
		}
	],
	"materials":[
		{
			"doubleSided":true,
			"extensions":{
				"KHR_materials_specular":{
					"specularColorFactor":[
						1,
						1,
						1
					]
				},
				"KHR_materials_ior":{
					"ior":1
				}
			},
			"name":"baseatlas",
			"pbrMetallicRoughness":{
				"baseColorTexture":{
					"index":0
				},
				"metallicFactor":0,
				"roughnessFactor":0.7234668731689453
			}
		}
	],
	"meshes":[
		{
			"name":"house-luxurious_Cube.002",
			"primitives":[
				{
					"attributes":{
						"POSITION":0,
						"NORMAL":1,
						"TEXCOORD_0":2
					},
					"indices":3,
					"material":0
				}
			]
		},
		{
			"name":"house-luxurious_Cube.001",
			"primitives":[
				{
					"attributes":{
						"POSITION":4,
						"NORMAL":5,
						"TEXCOORD_0":6
					},
					"indices":7,
					"material":0
				}
			]
		},
		{
			"name":"house-luxurious_Cube.003",
			"primitives":[
				{
					"attributes":{
						"POSITION":8,
						"NORMAL":9,
						"TEXCOORD_0":10
					},
					"indices":11,
					"material":0
				}
			]
		},
		{
			"name":"house-luxurious_Cube.010",
			"primitives":[
				{
					"attributes":{
						"POSITION":12,
						"NORMAL":13,
						"TEXCOORD_0":14
					},
					"indices":15,
					"material":0
				}
			]
		}
	],
	"textures":[
		{
			"sampler":0,
			"source":0
		}
	],
	"images":[
		{
			"bufferView":4,
			"mimeType":"image/jpeg",
			"name":"basetexture"
		}
	],
	"accessors":[
		{
			"bufferView":0,
			"componentType":5126,
			"count":68,
			"max":[
				-2.785567045211792,
				-1.3658959865570068,
				-3.6481568813323975
			],
			"min":[
				-3.270219087600708,
				-1.8349030017852783,
				-4.337775230407715
			],
			"type":"VEC3"
		},
		{
			"bufferView":1,
			"componentType":5126,
			"count":68,
			"type":"VEC3"
		},
		{
			"bufferView":2,
			"componentType":5126,
			"count":68,
			"type":"VEC2"
		},
		{
			"bufferView":3,
			"componentType":5123,
			"count":126,
			"type":"SCALAR"
		},
		{
			"bufferView":5,
			"componentType":5126,
			"count":20,
			"max":[
				-3.6250009536743164,
				-4.5999979972839355,
				-1
			],
			"min":[
				-4.375002861022949,
				-8,
				-1.1000009775161743
			],
			"type":"VEC3"
		},
		{
			"bufferView":6,
			"componentType":5126,
			"count":20,
			"type":"VEC3"
		},
		{
			"bufferView":7,
			"componentType":5126,
			"count":20,
			"type":"VEC2"
		},
		{
			"bufferView":8,
			"componentType":5123,
			"count":36,
			"type":"SCALAR"
		},
		{
			"bufferView":9,
			"componentType":5126,
			"count":191,
			"max":[
				3.7892839908599854,
				5.687800884246826,
				-1.0003989934921265
			],
			"min":[
				-5.999998092651367,
				-0.2576969861984253,
				-1.1103990077972412
			],
			"type":"VEC3"
		},
		{
			"bufferView":10,
			"componentType":5126,
			"count":191,
			"type":"VEC3"
		},
		{
			"bufferView":11,
			"componentType":5126,
			"count":191,
			"type":"VEC2"
		},
		{
			"bufferView":12,
			"componentType":5123,
			"count":471,
			"type":"SCALAR"
		},
		{
			"bufferView":13,
			"componentType":5126,
			"count":673,
			"max":[
				6.124999046325684,
				0.45632699131965637,
				-1
			],
			"min":[
				-6.125,
				-4.854795932769775,
				-4.157718181610107
			],
			"type":"VEC3"
		},
		{
			"bufferView":14,
			"componentType":5126,
			"count":673,
			"type":"VEC3"
		},
		{
			"bufferView":15,
			"componentType":5126,
			"count":673,
			"type":"VEC2"
		},
		{
			"bufferView":16,
			"componentType":5123,
			"count":1359,
			"type":"SCALAR"
		}
	],
	"bufferViews":[
		{
			"buffer":0,
			"byteLength":816,
			"byteOffset":0,
			"target":34962
		},
		{
			"buffer":0,
			"byteLength":816,
			"byteOffset":816,
			"target":34962
		},
		{
			"buffer":0,
			"byteLength":544,
			"byteOffset":1632,
			"target":34962
		},
		{
			"buffer":0,
			"byteLength":252,
			"byteOffset":2176,
			"target":34963
		},
		{
			"buffer":0,
			"byteLength":15081,
			"byteOffset":2428
		},
		{
			"buffer":0,
			"byteLength":240,
			"byteOffset":17512,
			"target":34962
		},
		{
			"buffer":0,
			"byteLength":240,
			"byteOffset":17752,
			"target":34962
		},
		{
			"buffer":0,
			"byteLength":160,
			"byteOffset":17992,
			"target":34962
		},
		{
			"buffer":0,
			"byteLength":72,
			"byteOffset":18152,
			"target":34963
		},
		{
			"buffer":0,
			"byteLength":2292,
			"byteOffset":18224,
			"target":34962
		},
		{
			"buffer":0,
			"byteLength":2292,
			"byteOffset":20516,
			"target":34962
		},
		{
			"buffer":0,
			"byteLength":1528,
			"byteOffset":22808,
			"target":34962
		},
		{
			"buffer":0,
			"byteLength":942,
			"byteOffset":24336,
			"target":34963
		},
		{
			"buffer":0,
			"byteLength":8076,
			"byteOffset":25280,
			"target":34962
		},
		{
			"buffer":0,
			"byteLength":8076,
			"byteOffset":33356,
			"target":34962
		},
		{
			"buffer":0,
			"byteLength":5384,
			"byteOffset":41432,
			"target":34962
		},
		{
			"buffer":0,
			"byteLength":2718,
			"byteOffset":46816,
			"target":34963
		}
	],
	"samplers":[
		{
			"magFilter":9729,
			"minFilter":9987
		}
	],
	"buffers":[
		{
			"byteLength":49536,
			"uri":"data:application/octet-stream;base64,"
		}
	]
}
