{
	"asset":{
		"generator":"Khronos glTF Blender I/O v3.6.28",
		"version":"2.0"
	},
	"extensionsUsed":[
		"KHR_materials_specular",
		"KHR_materials_ior"
	],
	"scene":0,
	"scenes":[
		{
			"name":"Scene",
			"nodes":[
				2
			]
		}
	],
	"nodes":[
		{
			"mesh":0,
			"name":"chimney.002"
		},
		{
			"mesh":1,
			"name":"doorway walkup"
		},
		{
			"children":[
				0,
				1
			],
			"mesh":2,
			"name":"house-mid_Cube.007",
			"rotation":[
				0.7071068286895752,
				0,
				0,
				0.7071068286895752
			]
		}
	],
	"materials":[
		{
			"doubleSided":true,
			"extensions":{
				"KHR_materials_specular":{
					"specularColorFactor":[
						1,
						1,
						1
					]
				},
				"KHR_materials_ior":{
					"ior":1
				}
			},
			"name":"baseatlas",
			"pbrMetallicRoughness":{
				"baseColorTexture":{
					"index":0
				},
				"metallicFactor":0,
				"roughnessFactor":0.7234668731689453
			}
		}
	],
	"meshes":[
		{
			"name":"house-mid_Cube.001",
			"primitives":[
				{
					"attributes":{
						"POSITION":0,
						"NORMAL":1,
						"TEXCOORD_0":2
					},
					"indices":3,
					"material":0
				}
			]
		},
		{
			"name":"house-small-garage_Cube.004",
			"primitives":[
				{
					"attributes":{
						"POSITION":4,
						"NORMAL":5,
						"TEXCOORD_0":6
					},
					"indices":7,
					"material":0
				}
			]
		},
		{
			"name":"house-mid_Cube.007",
			"primitives":[
				{
					"attributes":{
						"POSITION":8,
						"NORMAL":9,
						"TEXCOORD_0":10
					},
					"indices":11,
					"material":0
				}
			]
		}
	],
	"textures":[
		{
			"sampler":0,
			"source":0
		}
	],
	"images":[
		{
			"bufferView":4,
			"mimeType":"image/jpeg",
			"name":"basetexture"
		}
	],
	"accessors":[
		{
			"bufferView":0,
			"componentType":5126,
			"count":68,
			"max":[
				1.485700011253357,
				-0.8650969862937927,
				-3.660851001739502
			],
			"min":[
				1.001047968864441,
				-1.334102988243103,
				-4.63777494430542
			],
			"type":"VEC3"
		},
		{
			"bufferView":1,
			"componentType":5126,
			"count":68,
			"type":"VEC3"
		},
		{
			"bufferView":2,
			"componentType":5126,
			"count":68,
			"type":"VEC2"
		},
		{
			"bufferView":3,
			"componentType":5123,
			"count":126,
			"type":"SCALAR"
		},
		{
			"bufferView":5,
			"componentType":5126,
			"count":20,
			"max":[
				0.3749980032444,
				4,
				-1
			],
			"min":[
				-0.37500500679016113,
				1.8999979496002197,
				-1.1000009775161743
			],
			"type":"VEC3"
		},
		{
			"bufferView":6,
			"componentType":5126,
			"count":20,
			"type":"VEC3"
		},
		{
			"bufferView":7,
			"componentType":5126,
			"count":20,
			"type":"VEC2"
		},
		{
			"bufferView":8,
			"componentType":5123,
			"count":36,
			"type":"SCALAR"
		},
		{
			"bufferView":9,
			"componentType":5126,
			"count":449,
			"max":[
				3.218748092651367,
				2.2637829780578613,
				-1
			],
			"min":[
				-3.2187530994415283,
				-3.252326011657715,
				-4.317718029022217
			],
			"type":"VEC3"
		},
		{
			"bufferView":10,
			"componentType":5126,
			"count":449,
			"type":"VEC3"
		},
		{
			"bufferView":11,
			"componentType":5126,
			"count":449,
			"type":"VEC2"
		},
		{
			"bufferView":12,
			"componentType":5123,
			"count":795,
			"type":"SCALAR"
		}
	],
	"bufferViews":[
		{
			"buffer":0,
			"byteLength":816,
			"byteOffset":0,
			"target":34962
		},
		{
			"buffer":0,
			"byteLength":816,
			"byteOffset":816,
			"target":34962
		},
		{
			"buffer":0,
			"byteLength":544,
			"byteOffset":1632,
			"target":34962
		},
		{
			"buffer":0,
			"byteLength":252,
			"byteOffset":2176,
			"target":34963
		},
		{
			"buffer":0,
			"byteLength":15081,
			"byteOffset":2428
		},
		{
			"buffer":0,
			"byteLength":240,
			"byteOffset":17512,
			"target":34962
		},
		{
			"buffer":0,
			"byteLength":240,
			"byteOffset":17752,
			"target":34962
		},
		{
			"buffer":0,
			"byteLength":160,
			"byteOffset":17992,
			"target":34962
		},
		{
			"buffer":0,
			"byteLength":72,
			"byteOffset":18152,
			"target":34963
		},
		{
			"buffer":0,
			"byteLength":5388,
			"byteOffset":18224,
			"target":34962
		},
		{
			"buffer":0,
			"byteLength":5388,
			"byteOffset":23612,
			"target":34962
		},
		{
			"buffer":0,
			"byteLength":3592,
			"byteOffset":29000,
			"target":34962
		},
		{
			"buffer":0,
			"byteLength":1590,
			"byteOffset":32592,
			"target":34963
		}
	],
	"samplers":[
		{
			"magFilter":9729,
			"minFilter":9987
		}
	],
	"buffers":[
		{
			"byteLength":34184,
			"uri":"data:application/octet-stream;base64,"
		}
	]
}
